<svg xmlns="http://www.w3.org/2000/svg" width="1600" height="900" viewBox="0 0 1600 900" preserveAspectRatio="xMidYMid slice">
<defs>
<linearGradient id="sky" x1="0" y1="0" x2="0" y2="1">
<stop offset="0" stop-color="__PDEEP__"/><stop offset="0.55" stop-color="__PD__"/><stop offset="1" stop-color="__P__"/>
</linearGradient>
<radialGradient id="glow" cx="0.5" cy="0.82" r="0.55">
<stop offset="0" stop-color="__A__" stop-opacity="0.55"/><stop offset="1" stop-color="__A__" stop-opacity="0"/>
</radialGradient>
</defs>
<rect width="1600" height="900" fill="url(#sky)"/>
<rect width="1600" height="900" fill="url(#glow)"/>
<g fill="__AB__" opacity="0.9"><circle cx="1180" cy="150" r="4"/><circle cx="1320" cy="230" r="3"/><circle cx="1060" cy="240" r="2.5"/><circle cx="300" cy="180" r="3"/><circle cx="460" cy="120" r="2.5"/><circle cx="220" cy="300" r="2"/></g>
<g fill="none" stroke="__AB__" stroke-width="6" opacity="0.85"><path d="M1300 120 a58 58 0 1 0 26 92 a46 46 0 1 1 -26 -92 Z"/></g>
<g opacity="0.14" stroke="__AB__" stroke-width="2" fill="none"><path d="M800 360 L900 460 L800 560 L700 460 Z"/><path d="M800 320 L940 460 L800 600 L660 460 Z"/><circle cx="800" cy="460" r="30"/></g>
<g fill="__PDEEP__">
<path d="M0 680 Q 380 636 760 660 T 1600 672 V900 H0 Z" opacity="0.75"/>
<path d="M0 720 Q 500 690 1000 712 T 1600 720 V900 H0 Z"/>
</g>
<g fill="#0b1f16" opacity="0.96">
<rect x="596" y="500" width="408" height="220"/>
<path d="M660 500 C660 400 730 348 800 348 C870 348 940 400 940 500 Z"/>
<rect x="792" y="300" width="16" height="52"/>
<path d="M772 300 a28 28 0 0 0 56 0 a22 22 0 0 1 -56 0 Z" fill="__AB__"/>
<rect x="524" y="430" width="40" height="290"/><path d="M524 430 Q544 388 564 430 Z"/><rect x="539" y="404" width="10" height="30"/>
<rect x="1036" y="430" width="40" height="290"/><path d="M1036 430 Q1056 388 1076 430 Z"/><rect x="1051" y="404" width="10" height="30"/>
<path d="M726 720 V596 a74 74 0 0 1 148 0 V720 Z"/>
<rect x="636" y="560" width="52" height="160" rx="26"/><rect x="912" y="560" width="52" height="160" rx="26"/>
</g>
<g fill="__AB__" opacity="0.5"><rect x="596" y="716" width="408" height="4"/><rect x="524" y="716" width="40" height="4"/><rect x="1036" y="716" width="40" height="4"/></g>
</svg>
