<svg xmlns="http://www.w3.org/2000/svg" viewBox="0 0 168 44" role="img" aria-label="REKA">
  <defs>
    <linearGradient id="lb" x1="0" y1="0" x2="1" y2="1">
      <stop offset="0" stop-color="#1B5E3F"/>
      <stop offset="1" stop-color="#0B2A1B"/>
    </linearGradient>
    <linearGradient id="lg" x1="0" y1="0" x2="1" y2="1">
      <stop offset="0" stop-color="#F4E9CC"/>
      <stop offset="0.5" stop-color="#E9D29B"/>
      <stop offset="1" stop-color="#C9A961"/>
    </linearGradient>
  </defs>
  <rect x="2" y="2" width="40" height="40" rx="11" fill="url(#lb)"/>
  <g fill="none" stroke="url(#lg)" stroke-opacity="0.35" stroke-width="1">
    <rect x="11" y="11" width="22" height="22" rx="2"/>
    <rect x="11" y="11" width="22" height="22" rx="2" transform="rotate(45 22 22)"/>
  </g>
  <path d="M22 9.2a2.7 2.7 0 1 0 1.9 4.62 2.1 2.1 0 1 1 0-3.84A2.68 2.68 0 0 0 22 9.2z" fill="url(#lg)"/>
  <path d="M15.7 32V22.4c0-4.1 2.7-7.2 6.3-7.2s6.3 3.1 6.3 7.2V32z" fill="none" stroke="url(#lg)" stroke-width="2.1" stroke-linejoin="round"/>
  <text x="54" y="30" font-family="'Cormorant Garamond', Georgia, serif" font-size="26" font-weight="700" letter-spacing="3" fill="#0F3D27">REKA</text>
</svg>
